<?xml version="1.0" encoding="UTF-8" standalone="no"?>
<svg
   xmlns:dc="http://purl.org/dc/elements/1.1/"
   xmlns:cc="http://creativecommons.org/ns#"
   xmlns:rdf="http://www.w3.org/1999/02/22-rdf-syntax-ns#"
   xmlns:svg="http://www.w3.org/2000/svg"
   xmlns="http://www.w3.org/2000/svg"
   xmlns:sodipodi="http://sodipodi.sourceforge.net/DTD/sodipodi-0.dtd"
   xmlns:inkscape="http://www.inkscape.org/namespaces/inkscape"
   sodipodi:docname="iconRewire.svg"
   inkscape:version="1.0 (4035a4fb49, 2020-05-01)"
   id="svg8"
   version="1.1"
   viewBox="0 0 67.733332 67.733335"
   height="256"
   width="256">
  <defs
     id="defs2">
    <inkscape:perspective
       sodipodi:type="inkscape:persp3d"
       inkscape:vp_x="0 : 33.866667 : 1"
       inkscape:vp_y="0 : 1000 : 0"
       inkscape:vp_z="56.320923 : 17.589952 : 1"
       inkscape:persp3d-origin="33.866666 : 22.577778 : 1"
       id="perspective1277" />
  </defs>
  <sodipodi:namedview
     inkscape:document-rotation="0"
     inkscape:window-maximized="1"
     inkscape:window-y="-8"
     inkscape:window-x="-8"
     inkscape:window-height="1017"
     inkscape:window-width="1920"
     inkscape:snap-global="false"
     units="px"
     showgrid="false"
     inkscape:current-layer="layer1"
     inkscape:document-units="mm"
     inkscape:cy="145.5547"
     inkscape:cx="112.45434"
     inkscape:zoom="2"
     inkscape:pageshadow="2"
     inkscape:pageopacity="0.0"
     borderopacity="1.0"
     bordercolor="#666666"
     pagecolor="#ffffff"
     id="base" />
  <metadata
     id="metadata5">
    <rdf:RDF>
      <cc:Work
         rdf:about="">
        <dc:format>image/svg+xml</dc:format>
        <dc:type
           rdf:resource="http://purl.org/dc/dcmitype/StillImage" />
        <dc:title></dc:title>
      </cc:Work>
    </rdf:RDF>
  </metadata>
  <g
     transform="translate(0,-229.26665)"
     id="layer1"
     inkscape:groupmode="layer"
     inkscape:label="Ebene 1">
    <rect
       y="230.67705"
       x="1.403165"
       height="64.919769"
       width="64.919769"
       id="rect983"
       style="opacity:0.7;fill:#042738;fill-opacity:0.911348;fill-rule:nonzero;stroke:#000000;stroke-width:1.265;stroke-miterlimit:4;stroke-dasharray:none;stroke-opacity:1" />
    <path
       d="m 12.609117,240.41072 a 1.5,1.5 0 0 1 -1.395919,1.59731 1.5,1.5 0 0 1 -1.5973136,-1.39591 1.5,1.5 0 0 1 1.3959056,-1.59732 1.5,1.5 0 0 1 1.597325,1.3959 l -1.496615,0.10071 z"
       sodipodi:arc-type="slice"
       sodipodi:end="6.2159901"
       sodipodi:start="6.2160076"
       sodipodi:ry="1.5"
       sodipodi:rx="1.5"
       sodipodi:cy="240.51141"
       sodipodi:cx="11.1125"
       sodipodi:type="arc"
       id="path2860"
       style="opacity:0.7;fill:#042738;fill-opacity:0.911348;stroke:none;stroke-width:1.265;stroke-linejoin:round;stroke-opacity:0.502364;paint-order:markers stroke fill" />
    <path
       style="opacity:0.7;fill:#042738;fill-opacity:0.911348;stroke:none;stroke-width:1.265;stroke-linejoin:round;stroke-opacity:0.502364;paint-order:markers stroke fill"
       id="path2860-6"
       sodipodi:type="arc"
       sodipodi:cx="11.1125"
       sodipodi:cy="266.51617"
       sodipodi:rx="1.5"
       sodipodi:ry="1.5"
       sodipodi:start="6.2160076"
       sodipodi:end="6.2159901"
       sodipodi:arc-type="slice"
       d="m 12.609117,266.41548 a 1.5,1.5 0 0 1 -1.395919,1.59731 1.5,1.5 0 0 1 -1.5973136,-1.39591 1.5,1.5 0 0 1 1.3959056,-1.59732 1.5,1.5 0 0 1 1.597325,1.3959 l -1.496615,0.10071 z" />
    <path
       style="opacity:0.7;fill:#042738;fill-opacity:0.911348;stroke:none;stroke-width:1.265;stroke-linejoin:round;stroke-opacity:0.502364;paint-order:markers stroke fill"
       id="path2860-0"
       sodipodi:type="arc"
       sodipodi:cx="11.1125"
       sodipodi:cy="279.51859"
       sodipodi:rx="1.5"
       sodipodi:ry="1.5"
       sodipodi:start="6.2160076"
       sodipodi:end="6.2159901"
       sodipodi:arc-type="slice"
       d="m 12.609117,279.41789 a 1.5,1.5 0 0 1 -1.395919,1.59731 1.5,1.5 0 0 1 -1.5973136,-1.39591 1.5,1.5 0 0 1 1.3959056,-1.59732 1.5,1.5 0 0 1 1.597325,1.3959 l -1.496615,0.10072 z" />
    <path
       style="opacity:0.7;fill:#042738;fill-opacity:0.911348;stroke:none;stroke-width:1.265;stroke-linejoin:round;stroke-opacity:0.502364;paint-order:markers stroke fill"
       id="path2860-63"
       sodipodi:type="arc"
       sodipodi:cx="11.1125"
       sodipodi:cy="253.51381"
       sodipodi:rx="1.5"
       sodipodi:ry="1.5"
       sodipodi:start="6.2160076"
       sodipodi:end="6.2159901"
       sodipodi:arc-type="slice"
       d="m 12.609117,253.41312 a 1.5,1.5 0 0 1 -1.395919,1.59731 1.5,1.5 0 0 1 -1.5973136,-1.39592 1.5,1.5 0 0 1 1.3959056,-1.59732 1.5,1.5 0 0 1 1.597325,1.3959 l -1.496615,0.10072 z" />
    <path
       style="opacity:0.7;fill:#042738;fill-opacity:0.911348;stroke:none;stroke-width:1.265;stroke-linejoin:round;stroke-opacity:0.502364;paint-order:markers stroke fill"
       id="path2860-03"
       sodipodi:type="arc"
       sodipodi:cx="20.095104"
       sodipodi:cy="247.0126"
       sodipodi:rx="1.5"
       sodipodi:ry="1.5"
       sodipodi:start="6.2160076"
       sodipodi:end="6.2159901"
       sodipodi:arc-type="slice"
       d="m 21.591721,246.91191 a 1.5,1.5 0 0 1 -1.395919,1.59731 1.5,1.5 0 0 1 -1.597314,-1.39591 1.5,1.5 0 0 1 1.395906,-1.59732 1.5,1.5 0 0 1 1.597325,1.3959 l -1.496615,0.10071 z" />
    <path
       d="m 21.591721,272.9167 a 1.5,1.5 0 0 1 -1.395919,1.59731 1.5,1.5 0 0 1 -1.597314,-1.39591 1.5,1.5 0 0 1 1.395906,-1.59732 1.5,1.5 0 0 1 1.597325,1.3959 l -1.496615,0.10072 z"
       sodipodi:arc-type="slice"
       sodipodi:end="6.2159901"
       sodipodi:start="6.2160076"
       sodipodi:ry="1.5"
       sodipodi:rx="1.5"
       sodipodi:cy="273.0174"
       sodipodi:cx="20.095104"
       sodipodi:type="arc"
       id="path2860-6-6"
       style="opacity:0.7;fill:#042738;fill-opacity:0.911348;stroke:none;stroke-width:1.265;stroke-linejoin:round;stroke-opacity:0.502364;paint-order:markers stroke fill" />
    <path
       d="m 21.591719,285.91908 a 1.5,1.5 0 0 1 -1.395919,1.59731 1.5,1.5 0 0 1 -1.597313,-1.39591 1.5,1.5 0 0 1 1.395905,-1.59732 1.5,1.5 0 0 1 1.597325,1.3959 l -1.496615,0.10072 z"
       sodipodi:arc-type="slice"
       sodipodi:end="6.2159901"
       sodipodi:start="6.2160076"
       sodipodi:ry="1.5"
       sodipodi:rx="1.5"
       sodipodi:cy="286.01978"
       sodipodi:cx="20.095102"
       sodipodi:type="arc"
       id="path2860-0-6"
       style="opacity:0.7;fill:#042738;fill-opacity:0.911348;stroke:none;stroke-width:1.265;stroke-linejoin:round;stroke-opacity:0.502364;paint-order:markers stroke fill" />
    <path
       d="m 21.591719,259.91429 a 1.5,1.5 0 0 1 -1.395919,1.59731 1.5,1.5 0 0 1 -1.597313,-1.39591 1.5,1.5 0 0 1 1.395905,-1.59732 1.5,1.5 0 0 1 1.597325,1.3959 l -1.496615,0.10071 z"
       sodipodi:arc-type="slice"
       sodipodi:end="6.2159901"
       sodipodi:start="6.2160076"
       sodipodi:ry="1.5"
       sodipodi:rx="1.5"
       sodipodi:cy="260.01498"
       sodipodi:cx="20.095102"
       sodipodi:type="arc"
       id="path2860-63-9"
       style="opacity:0.7;fill:#042738;fill-opacity:0.911348;stroke:none;stroke-width:1.265;stroke-linejoin:round;stroke-opacity:0.502364;paint-order:markers stroke fill" />
    <path
       style="opacity:0.7;fill:#042738;fill-opacity:0.911348;stroke:none;stroke-width:1.265;stroke-linejoin:round;stroke-opacity:0.502364;paint-order:markers stroke fill"
       id="path2860-3"
       sodipodi:type="arc"
       sodipodi:cx="29.077709"
       sodipodi:cy="240.51141"
       sodipodi:rx="1.5"
       sodipodi:ry="1.5"
       sodipodi:start="6.2160076"
       sodipodi:end="6.2159901"
       sodipodi:arc-type="slice"
       d="m 30.574326,240.41072 a 1.5,1.5 0 0 1 -1.395919,1.59731 1.5,1.5 0 0 1 -1.597314,-1.39591 1.5,1.5 0 0 1 1.395906,-1.59732 1.5,1.5 0 0 1 1.597325,1.3959 l -1.496615,0.10071 z" />
    <path
       d="m 30.574326,266.41548 a 1.5,1.5 0 0 1 -1.395919,1.59731 1.5,1.5 0 0 1 -1.597314,-1.39591 1.5,1.5 0 0 1 1.395906,-1.59732 1.5,1.5 0 0 1 1.597325,1.3959 l -1.496615,0.10071 z"
       sodipodi:arc-type="slice"
       sodipodi:end="6.2159901"
       sodipodi:start="6.2160076"
       sodipodi:ry="1.5"
       sodipodi:rx="1.5"
       sodipodi:cy="266.51617"
       sodipodi:cx="29.077709"
       sodipodi:type="arc"
       id="path2860-6-0"
       style="opacity:0.7;fill:#042738;fill-opacity:0.911348;stroke:none;stroke-width:1.265;stroke-linejoin:round;stroke-opacity:0.502364;paint-order:markers stroke fill" />
    <path
       d="m 30.574326,279.41789 a 1.5,1.5 0 0 1 -1.395919,1.59731 1.5,1.5 0 0 1 -1.597314,-1.39591 1.5,1.5 0 0 1 1.395906,-1.59732 1.5,1.5 0 0 1 1.597325,1.3959 l -1.496615,0.10072 z"
       sodipodi:arc-type="slice"
       sodipodi:end="6.2159901"
       sodipodi:start="6.2160076"
       sodipodi:ry="1.5"
       sodipodi:rx="1.5"
       sodipodi:cy="279.51859"
       sodipodi:cx="29.077709"
       sodipodi:type="arc"
       id="path2860-0-4"
       style="opacity:0.7;fill:#042738;fill-opacity:0.911348;stroke:none;stroke-width:1.265;stroke-linejoin:round;stroke-opacity:0.502364;paint-order:markers stroke fill" />
    <path
       d="m 30.574326,253.41312 a 1.5,1.5 0 0 1 -1.395919,1.59731 1.5,1.5 0 0 1 -1.597314,-1.39592 1.5,1.5 0 0 1 1.395906,-1.59732 1.5,1.5 0 0 1 1.597325,1.3959 l -1.496615,0.10072 z"
       sodipodi:arc-type="slice"
       sodipodi:end="6.2159901"
       sodipodi:start="6.2160076"
       sodipodi:ry="1.5"
       sodipodi:rx="1.5"
       sodipodi:cy="253.51381"
       sodipodi:cx="29.077709"
       sodipodi:type="arc"
       id="path2860-63-6"
       style="opacity:0.7;fill:#042738;fill-opacity:0.911348;stroke:none;stroke-width:1.265;stroke-linejoin:round;stroke-opacity:0.502364;paint-order:markers stroke fill" />
    <path
       d="m 39.556931,246.91191 a 1.5,1.5 0 0 1 -1.395919,1.59731 1.5,1.5 0 0 1 -1.597314,-1.39591 1.5,1.5 0 0 1 1.395906,-1.59732 1.5,1.5 0 0 1 1.597325,1.3959 l -1.496615,0.10071 z"
       sodipodi:arc-type="slice"
       sodipodi:end="6.2159901"
       sodipodi:start="6.2160076"
       sodipodi:ry="1.5"
       sodipodi:rx="1.5"
       sodipodi:cy="247.0126"
       sodipodi:cx="38.060314"
       sodipodi:type="arc"
       id="path2860-03-2"
       style="opacity:0.7;fill:#042738;fill-opacity:0.911348;stroke:none;stroke-width:1.265;stroke-linejoin:round;stroke-opacity:0.502364;paint-order:markers stroke fill" />
    <path
       style="opacity:0.7;fill:#042738;fill-opacity:0.911348;stroke:none;stroke-width:1.265;stroke-linejoin:round;stroke-opacity:0.502364;paint-order:markers stroke fill"
       id="path2860-6-6-2"
       sodipodi:type="arc"
       sodipodi:cx="38.06031"
       sodipodi:cy="273.0174"
       sodipodi:rx="1.5"
       sodipodi:ry="1.5"
       sodipodi:start="6.2160076"
       sodipodi:end="6.2159901"
       sodipodi:arc-type="slice"
       d="m 39.556927,272.9167 a 1.5,1.5 0 0 1 -1.395919,1.59731 1.5,1.5 0 0 1 -1.597313,-1.39591 1.5,1.5 0 0 1 1.395905,-1.59732 1.5,1.5 0 0 1 1.597325,1.3959 l -1.496615,0.10072 z" />
    <path
       style="opacity:0.7;fill:#042738;fill-opacity:0.911348;stroke:none;stroke-width:1.265;stroke-linejoin:round;stroke-opacity:0.502364;paint-order:markers stroke fill"
       id="path2860-0-6-0"
       sodipodi:type="arc"
       sodipodi:cx="38.060314"
       sodipodi:cy="286.01978"
       sodipodi:rx="1.5"
       sodipodi:ry="1.5"
       sodipodi:start="6.2160076"
       sodipodi:end="6.2159901"
       sodipodi:arc-type="slice"
       d="m 39.556931,285.91908 a 1.5,1.5 0 0 1 -1.395919,1.59731 1.5,1.5 0 0 1 -1.597314,-1.39591 1.5,1.5 0 0 1 1.395906,-1.59732 1.5,1.5 0 0 1 1.597325,1.3959 l -1.496615,0.10072 z" />
    <path
       style="opacity:0.7;fill:#042738;fill-opacity:0.911348;stroke:none;stroke-width:1.265;stroke-linejoin:round;stroke-opacity:0.502364;paint-order:markers stroke fill"
       id="path2860-63-9-9"
       sodipodi:type="arc"
       sodipodi:cx="38.060314"
       sodipodi:cy="260.01498"
       sodipodi:rx="1.5"
       sodipodi:ry="1.5"
       sodipodi:start="6.2160076"
       sodipodi:end="6.2159901"
       sodipodi:arc-type="slice"
       d="m 39.556931,259.91429 a 1.5,1.5 0 0 1 -1.395919,1.59731 1.5,1.5 0 0 1 -1.597314,-1.39591 1.5,1.5 0 0 1 1.395906,-1.59732 1.5,1.5 0 0 1 1.597325,1.3959 l -1.496615,0.10071 z" />
    <path
       style="opacity:0.7;fill:#042738;fill-opacity:0.911348;stroke:none;stroke-width:1.265;stroke-linejoin:round;stroke-opacity:0.502364;paint-order:markers stroke fill"
       id="path2860-1"
       sodipodi:type="arc"
       sodipodi:cx="47.042919"
       sodipodi:cy="240.51141"
       sodipodi:rx="1.5"
       sodipodi:ry="1.5"
       sodipodi:start="6.2160076"
       sodipodi:end="6.2159901"
       sodipodi:arc-type="slice"
       d="m 48.539536,240.41072 a 1.5,1.5 0 0 1 -1.39592,1.59731 1.5,1.5 0 0 1 -1.597313,-1.39591 1.5,1.5 0 0 1 1.395906,-1.59732 1.5,1.5 0 0 1 1.597325,1.3959 l -1.496615,0.10071 z" />
    <path
       d="m 48.539532,266.41548 a 1.5,1.5 0 0 1 -1.395919,1.59731 1.5,1.5 0 0 1 -1.597313,-1.39591 1.5,1.5 0 0 1 1.395905,-1.59732 1.5,1.5 0 0 1 1.597325,1.3959 l -1.496615,0.10071 z"
       sodipodi:arc-type="slice"
       sodipodi:end="6.2159901"
       sodipodi:start="6.2160076"
       sodipodi:ry="1.5"
       sodipodi:rx="1.5"
       sodipodi:cy="266.51617"
       sodipodi:cx="47.042915"
       sodipodi:type="arc"
       id="path2860-6-01"
       style="opacity:0.7;fill:#042738;fill-opacity:0.911348;stroke:none;stroke-width:1.265;stroke-linejoin:round;stroke-opacity:0.502364;paint-order:markers stroke fill" />
    <path
       d="m 48.539536,279.41789 a 1.5,1.5 0 0 1 -1.39592,1.59731 1.5,1.5 0 0 1 -1.597313,-1.39591 1.5,1.5 0 0 1 1.395906,-1.59732 1.5,1.5 0 0 1 1.597325,1.3959 l -1.496615,0.10072 z"
       sodipodi:arc-type="slice"
       sodipodi:end="6.2159901"
       sodipodi:start="6.2160076"
       sodipodi:ry="1.5"
       sodipodi:rx="1.5"
       sodipodi:cy="279.51859"
       sodipodi:cx="47.042919"
       sodipodi:type="arc"
       id="path2860-0-9"
       style="opacity:0.7;fill:#042738;fill-opacity:0.911348;stroke:none;stroke-width:1.265;stroke-linejoin:round;stroke-opacity:0.502364;paint-order:markers stroke fill" />
    <path
       d="m 48.539536,253.41312 a 1.5,1.5 0 0 1 -1.39592,1.59731 1.5,1.5 0 0 1 -1.597313,-1.39592 1.5,1.5 0 0 1 1.395906,-1.59732 1.5,1.5 0 0 1 1.597325,1.3959 l -1.496615,0.10072 z"
       sodipodi:arc-type="slice"
       sodipodi:end="6.2159901"
       sodipodi:start="6.2160076"
       sodipodi:ry="1.5"
       sodipodi:rx="1.5"
       sodipodi:cy="253.51381"
       sodipodi:cx="47.042919"
       sodipodi:type="arc"
       id="path2860-63-8"
       style="opacity:0.7;fill:#042738;fill-opacity:0.911348;stroke:none;stroke-width:1.265;stroke-linejoin:round;stroke-opacity:0.502364;paint-order:markers stroke fill" />
    <path
       d="m 57.522137,246.91191 a 1.5,1.5 0 0 1 -1.395919,1.59731 1.5,1.5 0 0 1 -1.597313,-1.39591 1.5,1.5 0 0 1 1.395905,-1.59732 1.5,1.5 0 0 1 1.597325,1.3959 l -1.496615,0.10071 z"
       sodipodi:arc-type="slice"
       sodipodi:end="6.2159901"
       sodipodi:start="6.2160076"
       sodipodi:ry="1.5"
       sodipodi:rx="1.5"
       sodipodi:cy="247.0126"
       sodipodi:cx="56.02552"
       sodipodi:type="arc"
       id="path2860-03-1"
       style="opacity:0.7;fill:#042738;fill-opacity:0.911348;stroke:none;stroke-width:1.265;stroke-linejoin:round;stroke-opacity:0.502364;paint-order:markers stroke fill" />
    <path
       style="opacity:0.7;fill:#042738;fill-opacity:0.911348;stroke:none;stroke-width:1.265;stroke-linejoin:round;stroke-opacity:0.502364;paint-order:markers stroke fill"
       id="path2860-6-6-6"
       sodipodi:type="arc"
       sodipodi:cx="56.02552"
       sodipodi:cy="273.0174"
       sodipodi:rx="1.5"
       sodipodi:ry="1.5"
       sodipodi:start="6.2160076"
       sodipodi:end="6.2159901"
       sodipodi:arc-type="slice"
       d="m 57.522137,272.9167 a 1.5,1.5 0 0 1 -1.395919,1.59731 1.5,1.5 0 0 1 -1.597313,-1.39591 1.5,1.5 0 0 1 1.395905,-1.59732 1.5,1.5 0 0 1 1.597325,1.3959 l -1.496615,0.10072 z" />
    <path
       style="opacity:0.7;fill:#042738;fill-opacity:0.911348;stroke:none;stroke-width:1.265;stroke-linejoin:round;stroke-opacity:0.502364;paint-order:markers stroke fill"
       id="path2860-0-6-5"
       sodipodi:type="arc"
       sodipodi:cx="56.02552"
       sodipodi:cy="286.01978"
       sodipodi:rx="1.5"
       sodipodi:ry="1.5"
       sodipodi:start="6.2160076"
       sodipodi:end="6.2159901"
       sodipodi:arc-type="slice"
       d="m 57.522137,285.91908 a 1.5,1.5 0 0 1 -1.395919,1.59731 1.5,1.5 0 0 1 -1.597313,-1.39591 1.5,1.5 0 0 1 1.395905,-1.59732 1.5,1.5 0 0 1 1.597325,1.3959 l -1.496615,0.10072 z" />
    <path
       style="opacity:0.7;fill:#042738;fill-opacity:0.911348;stroke:none;stroke-width:1.265;stroke-linejoin:round;stroke-opacity:0.502364;paint-order:markers stroke fill"
       id="path2860-63-9-8"
       sodipodi:type="arc"
       sodipodi:cx="56.02552"
       sodipodi:cy="260.01498"
       sodipodi:rx="1.5"
       sodipodi:ry="1.5"
       sodipodi:start="6.2160076"
       sodipodi:end="6.2159901"
       sodipodi:arc-type="slice"
       d="m 57.522137,259.91429 a 1.5,1.5 0 0 1 -1.395919,1.59731 1.5,1.5 0 0 1 -1.597313,-1.39591 1.5,1.5 0 0 1 1.395905,-1.59732 1.5,1.5 0 0 1 1.597325,1.3959 l -1.496615,0.10071 z" />
    <path
       d="m 26.10931,246.69315 a 5.9175754,5.9175754 0 0 1 -5.506972,6.30145 5.9175754,5.9175754 0 0 1 -6.30148,-5.50694 5.9175754,5.9175754 0 0 1 5.506916,-6.3015 5.9175754,5.9175754 0 0 1 6.301529,5.50688 l -5.904221,0.39734 z"
       sodipodi:arc-type="slice"
       sodipodi:end="6.2159901"
       sodipodi:start="6.2160076"
       sodipodi:ry="5.9175754"
       sodipodi:rx="5.9175754"
       sodipodi:cy="247.09038"
       sodipodi:cx="20.205082"
       sodipodi:type="arc"
       id="path2971"
       style="opacity:0.7;fill:#8fa9b5;fill-opacity:0.911348;stroke:#12c30a;stroke-width:4.165;stroke-linejoin:round;stroke-miterlimit:4;stroke-dasharray:none;stroke-opacity:0.652482;paint-order:markers stroke fill" />
    <path
       style="opacity:0.7;fill:#8fa9b5;fill-opacity:0.911348;stroke:#12c30a;stroke-width:4.16499;stroke-linejoin:round;stroke-miterlimit:4;stroke-dasharray:none;stroke-opacity:0.652482;paint-order:markers stroke fill"
       id="path2971-7"
       sodipodi:type="arc"
       sodipodi:cx="46.831249"
       sodipodi:cy="253.21144"
       sodipodi:rx="3.950073"
       sodipodi:ry="3.950073"
       sodipodi:start="6.2160076"
       sodipodi:end="6.2159901"
       sodipodi:arc-type="slice"
       d="m 50.772413,252.94628 a 3.950073,3.950073 0 0 1 -3.675989,4.20632 3.950073,3.950073 0 0 1 -4.206336,-3.67597 3.950073,3.950073 0 0 1 3.675952,-4.20635 3.950073,3.950073 0 0 1 4.206368,3.67593 l -3.941159,0.26523 z" />
    <path
       style="opacity:0.7;fill:#8fa9b5;fill-opacity:0.911348;stroke:#c30e0a;stroke-width:4.165;stroke-linejoin:round;stroke-miterlimit:4;stroke-dasharray:none;stroke-opacity:0.652482;paint-order:markers stroke fill"
       id="path2971-1"
       sodipodi:type="arc"
       sodipodi:cx="28.986174"
       sodipodi:cy="279.41946"
       sodipodi:rx="9.9174995"
       sodipodi:ry="9.9174995"
       sodipodi:start="6.2160076"
       sodipodi:end="6.2159901"
       sodipodi:arc-type="slice"
       d="m 38.881304,278.75373 a 9.9174995,9.9174995 0 0 1 -9.229353,10.56086 9.9174995,9.9174995 0 0 1 -10.560901,-9.22931 9.9174995,9.9174995 0 0 1 9.22926,-10.56094 9.9174995,9.9174995 0 0 1 10.560982,9.22922 l -9.895118,0.6659 z" />
  </g>
</svg>
