<?xml version="1.0" encoding="UTF-8" standalone="no"?>
<!-- Created with Inkscape (http://www.inkscape.org/) -->

<svg
   xmlns:dc="http://purl.org/dc/elements/1.1/"
   xmlns:cc="http://creativecommons.org/ns#"
   xmlns:rdf="http://www.w3.org/1999/02/22-rdf-syntax-ns#"
   xmlns:svg="http://www.w3.org/2000/svg"
   xmlns="http://www.w3.org/2000/svg"
   xmlns:xlink="http://www.w3.org/1999/xlink"
   xmlns:sodipodi="http://sodipodi.sourceforge.net/DTD/sodipodi-0.dtd"
   xmlns:inkscape="http://www.inkscape.org/namespaces/inkscape"
   width="256"
   height="256"
   viewBox="0 0 67.733332 67.733335"
   version="1.1"
   id="svg8"
   inkscape:version="0.92.3 (2405546, 2018-03-11)"
   sodipodi:docname="iconAlge.svg">
  <defs
     id="defs2">
    <linearGradient
       inkscape:collect="always"
       id="linearGradient1662">
      <stop
         style="stop-color:#cae241;stop-opacity:1;"
         offset="0"
         id="stop1658" />
      <stop
         style="stop-color:#cae241;stop-opacity:0;"
         offset="1"
         id="stop1660" />
    </linearGradient>
    <radialGradient
       inkscape:collect="always"
       xlink:href="#linearGradient1662"
       id="radialGradient1664"
       cx="34.54459"
       cy="238.94644"
       fx="34.54459"
       fy="238.94644"
       r="7.0158248"
       gradientTransform="matrix(1.6761907,0,0,1.2380953,-23.69281,-57.493372)"
       gradientUnits="userSpaceOnUse" />
  </defs>
  <sodipodi:namedview
     id="base"
     pagecolor="#ffffff"
     bordercolor="#666666"
     borderopacity="1.0"
     inkscape:pageopacity="0.0"
     inkscape:pageshadow="2"
     inkscape:zoom="2.8"
     inkscape:cx="20.771944"
     inkscape:cy="149.15385"
     inkscape:document-units="mm"
     inkscape:current-layer="layer1"
     showgrid="false"
     units="px"
     inkscape:snap-global="false"
     inkscape:window-width="1920"
     inkscape:window-height="1017"
     inkscape:window-x="-8"
     inkscape:window-y="-8"
     inkscape:window-maximized="1" />
  <metadata
     id="metadata5">
    <rdf:RDF>
      <cc:Work
         rdf:about="">
        <dc:format>image/svg+xml</dc:format>
        <dc:type
           rdf:resource="http://purl.org/dc/dcmitype/StillImage" />
        <dc:title></dc:title>
      </cc:Work>
    </rdf:RDF>
  </metadata>
  <g
     inkscape:label="Ebene 1"
     inkscape:groupmode="layer"
     id="layer1"
     transform="translate(0,-229.26665)">
    <rect
       style="opacity:1;fill:#85bd18;fill-opacity:0.76078431;fill-rule:nonzero;stroke:none;stroke-width:0.47223642;stroke-miterlimit:4;stroke-dasharray:none;stroke-opacity:1"
       id="rect1641"
       width="6.4144688"
       height="5.3119812"
       x="31.67144"
       y="242.20973" />
    <path
       style="opacity:1;fill:#5b8d1c;fill-opacity:1;fill-rule:nonzero;stroke:none;stroke-width:0.7430687;stroke-miterlimit:4;stroke-dasharray:none;stroke-opacity:1"
       id="path1639-9"
       sodipodi:type="arc"
       sodipodi:cx="34.611401"
       sodipodi:cy="238.61235"
       sodipodi:rx="9.1539822"
       sodipodi:ry="7.6839986"
       sodipodi:start="0"
       sodipodi:end="6.2225526"
       sodipodi:open="true"
       d="m 43.765383,238.61235 a 9.1539822,7.6839986 0 0 1 -9.01523,7.68312 9.1539822,7.6839986 0 0 1 -9.288528,-7.4502 9.1539822,7.6839986 0 0 1 8.733646,-7.90897 9.1539822,7.6839986 0 0 1 9.55329,7.21043" />
    <g
       id="g1920"
       style="opacity:0.759">
      <path
         inkscape:connector-curvature="0"
         id="path1622"
         d="m 31.884413,288.27984 c -11.442806,-1.19577 -20.767442,-7.81097 -23.1030489,-16.39005 -0.4534236,-1.6655 -0.6123981,-4.6029 -0.3429398,-6.33657 1.4256637,-9.1727 10.7639847,-16.54891 22.8345297,-18.03671 2.007232,-0.24739 6.75279,-0.25378 8.691576,-0.0118 6.917246,0.86376 13.147952,3.63922 17.277189,7.69606 3.1846,3.12877 4.865205,6.13352 5.621943,10.05148 0.299289,1.54953 0.322995,2.01652 0.180932,3.56406 -0.538524,5.86621 -3.566581,10.64056 -9.152612,14.43096 -5.786215,3.92624 -14.194344,5.84892 -22.007569,5.03244 z"
         style="opacity:1;fill:#85bd18;fill-opacity:1;fill-rule:nonzero;stroke:none;stroke-width:0.05498412;stroke-miterlimit:4;stroke-dasharray:none;stroke-opacity:1" />
      <path
         inkscape:connector-curvature="0"
         id="path1622-2"
         d="m 31.712346,291.71235 c -11.446988,-0.4855 -20.775031,-3.17139 -23.1114916,-6.65465 -0.4535893,-0.67622 -0.6126219,-1.86886 -0.3430651,-2.57276 1.4261844,-3.72428 10.7679177,-6.71915 22.8428737,-7.32323 2.007965,-0.10044 6.755259,-0.10304 8.694752,-0.005 6.919774,0.3507 13.152757,1.47759 17.283502,3.12474 3.185765,1.27033 4.866984,2.49032 5.623998,4.08108 0.299398,0.62914 0.323114,0.81874 0.180999,1.44707 -0.538722,2.38179 -3.567885,4.32026 -9.155957,5.85923 -5.78833,1.59412 -14.19953,2.37476 -22.015611,2.04326 z"
         style="opacity:1;fill:#85bd18;fill-opacity:1;fill-rule:nonzero;stroke:none;stroke-width:0.03504202;stroke-miterlimit:4;stroke-dasharray:none;stroke-opacity:1" />
    </g>
    <path
       style="opacity:0.817;fill:url(#radialGradient1664);fill-opacity:1;fill-rule:nonzero;stroke:none;stroke-width:0.89546317;stroke-miterlimit:4;stroke-dasharray:none;stroke-opacity:1"
       id="path1639"
       sodipodi:type="arc"
       sodipodi:cx="34.210499"
       sodipodi:cy="238.34508"
       sodipodi:rx="11.759859"
       sodipodi:ry="8.6862593"
       sodipodi:start="0"
       sodipodi:end="6.2225526"
       sodipodi:open="true"
       d="m 45.970358,238.34508 a 11.759859,8.6862593 0 0 1 -11.581608,8.68526 11.759859,8.6862593 0 0 1 -11.932707,-8.42197 11.759859,8.6862593 0 0 1 11.219866,-8.94057 11.759859,8.6862593 0 0 1 12.272839,8.15093" />
    <path
       style="opacity:0.498;fill:#678f1b;fill-opacity:1;fill-rule:nonzero;stroke:none;stroke-width:0.85645092;stroke-miterlimit:4;stroke-dasharray:none;stroke-opacity:1"
       id="path1666"
       sodipodi:type="arc"
       sodipodi:cx="34.745037"
       sodipodi:cy="272.7453"
       sodipodi:rx="18.174326"
       sodipodi:ry="14.633006"
       sodipodi:start="0"
       sodipodi:end="6.2225526"
       sodipodi:open="true"
       d="M 52.919363,272.7453 A 18.174326,14.633006 0 0 1 35.020516,287.37663 18.174326,14.633006 0 0 1 16.579062,273.18885 18.174326,14.633006 0 0 1 33.918853,258.12742 18.174326,14.633006 0 0 1 52.885966,271.85861" />
    <path
       style="opacity:0.817;fill:#ffffff;fill-opacity:1;fill-rule:nonzero;stroke:none;stroke-width:0.77588463;stroke-miterlimit:4;stroke-dasharray:none;stroke-opacity:1"
       id="path1666-7"
       sodipodi:type="arc"
       sodipodi:cx="34.878677"
       sodipodi:cy="272.7453"
       sodipodi:rx="16.837978"
       sodipodi:ry="12.962571"
       sodipodi:start="0"
       sodipodi:end="6.2225526"
       sodipodi:open="true"
       d="m 51.716656,272.7453 a 16.837978,12.962571 0 0 1 -16.582755,12.96108 16.837978,12.962571 0 0 1 -17.085465,-12.56816 16.837978,12.962571 0 0 1 16.064806,-13.34209 16.837978,12.962571 0 0 1 17.572472,12.1637" />
    <path
       style="opacity:0.49800002;fill:#000000;fill-opacity:1;fill-rule:nonzero;stroke:none;stroke-width:0.49582893;stroke-miterlimit:4;stroke-dasharray:none;stroke-opacity:1"
       id="path1886"
       sodipodi:type="arc"
       sodipodi:cx="35.145943"
       sodipodi:cy="278.69205"
       sodipodi:rx="6.8153725"
       sodipodi:ry="5.0781217"
       sodipodi:start="0"
       sodipodi:end="6.2225526"
       sodipodi:open="true"
       d="m 41.961315,278.69205 a 6.8153725,5.0781217 0 0 1 -6.712068,5.07754 6.8153725,5.0781217 0 0 1 -6.915545,-4.92362 6.8153725,5.0781217 0 0 1 6.502422,-5.22679 6.8153725,5.0781217 0 0 1 7.112667,4.76516" />
    <path
       style="opacity:0.49800002;fill:#47aeb4;fill-opacity:1;fill-rule:nonzero;stroke:none;stroke-width:0.26414129;stroke-miterlimit:4;stroke-dasharray:none;stroke-opacity:1"
       id="path1886-5"
       sodipodi:type="arc"
       sodipodi:cx="35.145947"
       sodipodi:cy="280.29562"
       sodipodi:rx="3.3408687"
       sodipodi:ry="2.9399655"
       sodipodi:start="0"
       sodipodi:end="6.2225526"
       sodipodi:open="true"
       d="m 38.486815,280.29562 a 3.3408687,2.9399655 0 0 1 -3.290229,2.93963 3.3408687,2.9399655 0 0 1 -3.389973,-2.85051 3.3408687,2.9399655 0 0 1 3.187461,-3.02604 3.3408687,2.9399655 0 0 1 3.486602,2.75877" />
    <path
       style="opacity:0.96499999;fill:#ffffff;fill-opacity:1;fill-rule:nonzero;stroke:none;stroke-width:0.16856949;stroke-miterlimit:4;stroke-dasharray:none;stroke-opacity:1"
       id="path1886-5-3"
       sodipodi:type="arc"
       sodipodi:cx="34.750412"
       sodipodi:cy="279.90549"
       sodipodi:rx="2.1381559"
       sodipodi:ry="1.8708874"
       sodipodi:start="0"
       sodipodi:end="6.2225526"
       sodipodi:open="true"
       d="m 36.888568,279.90549 a 2.1381559,1.8708874 0 0 1 -2.105747,1.87067 2.1381559,1.8708874 0 0 1 -2.169582,-1.81396 2.1381559,1.8708874 0 0 1 2.039975,-1.92567 2.1381559,1.8708874 0 0 1 2.231425,1.75559" />
  </g>
</svg>
